<mxfile host="app.diagrams.net" modified="2024-06-27T10:16:16.332Z" agent="Mozilla/5.0 (Windows NT 10.0; Win64; x64) AppleWebKit/537.36 (KHTML, like Gecko) Chrome/126.0.0.0 Safari/537.36" etag="VSKhsdnBjfn5kvY1VkfN" version="24.6.3" type="device">
  <diagram id="C5RBs43oDa-KdzZeNtuy" name="Page-1">
    <mxGraphModel dx="1831" dy="1792" grid="1" gridSize="10" guides="1" tooltips="1" connect="1" arrows="1" fold="1" page="1" pageScale="1" pageWidth="827" pageHeight="1169" math="0" shadow="0">
      <root>
        <mxCell id="WIyWlLk6GJQsqaUBKTNV-0" />
        <mxCell id="WIyWlLk6GJQsqaUBKTNV-1" parent="WIyWlLk6GJQsqaUBKTNV-0" />
        <mxCell id="hRnHotgYXmPWm2Bzv7nC-1" value="" style="edgeStyle=orthogonalEdgeStyle;rounded=0;orthogonalLoop=1;jettySize=auto;html=1;exitX=0;exitY=0.75;exitDx=0;exitDy=0;" parent="WIyWlLk6GJQsqaUBKTNV-1" source="hRnHotgYXmPWm2Bzv7nC-3" target="hRnHotgYXmPWm2Bzv7nC-0" edge="1">
          <mxGeometry relative="1" as="geometry">
            <mxPoint x="360" y="210" as="sourcePoint" />
            <Array as="points">
              <mxPoint x="370" y="210" />
            </Array>
          </mxGeometry>
        </mxCell>
        <mxCell id="hRnHotgYXmPWm2Bzv7nC-8" value="" style="edgeStyle=orthogonalEdgeStyle;rounded=0;orthogonalLoop=1;jettySize=auto;html=1;" parent="WIyWlLk6GJQsqaUBKTNV-1" source="hRnHotgYXmPWm2Bzv7nC-0" target="hRnHotgYXmPWm2Bzv7nC-7" edge="1">
          <mxGeometry relative="1" as="geometry" />
        </mxCell>
        <mxCell id="hRnHotgYXmPWm2Bzv7nC-0" value="Case 1:Add new Student&amp;nbsp;" style="whiteSpace=wrap;html=1;shadow=0;strokeWidth=1;spacing=6;spacingTop=-4;" parent="WIyWlLk6GJQsqaUBKTNV-1" vertex="1">
          <mxGeometry x="-20" y="180" width="120" height="60" as="geometry" />
        </mxCell>
        <mxCell id="hRnHotgYXmPWm2Bzv7nC-61" value="" style="edgeStyle=orthogonalEdgeStyle;rounded=0;orthogonalLoop=1;jettySize=auto;html=1;" parent="WIyWlLk6GJQsqaUBKTNV-1" source="hRnHotgYXmPWm2Bzv7nC-3" target="hRnHotgYXmPWm2Bzv7nC-60" edge="1">
          <mxGeometry relative="1" as="geometry" />
        </mxCell>
        <mxCell id="EDGn8tP3c5_l9zVry4pb-40" value="" style="edgeStyle=orthogonalEdgeStyle;rounded=0;orthogonalLoop=1;jettySize=auto;html=1;" edge="1" parent="WIyWlLk6GJQsqaUBKTNV-1" source="hRnHotgYXmPWm2Bzv7nC-3" target="hRnHotgYXmPWm2Bzv7nC-5">
          <mxGeometry relative="1" as="geometry" />
        </mxCell>
        <mxCell id="hRnHotgYXmPWm2Bzv7nC-3" value="Switch Case" style="rounded=0;whiteSpace=wrap;html=1;" parent="WIyWlLk6GJQsqaUBKTNV-1" vertex="1">
          <mxGeometry x="370" y="175" width="120" height="70" as="geometry" />
        </mxCell>
        <mxCell id="EDGn8tP3c5_l9zVry4pb-41" value="" style="edgeStyle=orthogonalEdgeStyle;rounded=0;orthogonalLoop=1;jettySize=auto;html=1;" edge="1" parent="WIyWlLk6GJQsqaUBKTNV-1" source="hRnHotgYXmPWm2Bzv7nC-5" target="hRnHotgYXmPWm2Bzv7nC-28">
          <mxGeometry relative="1" as="geometry" />
        </mxCell>
        <mxCell id="hRnHotgYXmPWm2Bzv7nC-5" value="Case 2: Update Student by StudentID" style="rounded=0;whiteSpace=wrap;html=1;" parent="WIyWlLk6GJQsqaUBKTNV-1" vertex="1">
          <mxGeometry x="370" y="300" width="120" height="70" as="geometry" />
        </mxCell>
        <mxCell id="hRnHotgYXmPWm2Bzv7nC-10" value="" style="edgeStyle=orthogonalEdgeStyle;rounded=0;orthogonalLoop=1;jettySize=auto;html=1;" parent="WIyWlLk6GJQsqaUBKTNV-1" source="hRnHotgYXmPWm2Bzv7nC-7" edge="1">
          <mxGeometry relative="1" as="geometry">
            <mxPoint x="40" y="450" as="targetPoint" />
          </mxGeometry>
        </mxCell>
        <mxCell id="hRnHotgYXmPWm2Bzv7nC-7" value="Enter Student ID&lt;div&gt;&lt;br/&gt;&lt;/div&gt;" style="whiteSpace=wrap;html=1;shadow=0;strokeWidth=1;spacing=6;spacingTop=-4;" parent="WIyWlLk6GJQsqaUBKTNV-1" vertex="1">
          <mxGeometry x="-20" y="330" width="120" height="50" as="geometry" />
        </mxCell>
        <mxCell id="hRnHotgYXmPWm2Bzv7nC-12" value="" style="edgeStyle=orthogonalEdgeStyle;rounded=0;orthogonalLoop=1;jettySize=auto;html=1;" parent="WIyWlLk6GJQsqaUBKTNV-1" target="hRnHotgYXmPWm2Bzv7nC-11" edge="1">
          <mxGeometry relative="1" as="geometry">
            <mxPoint x="40" y="500" as="sourcePoint" />
          </mxGeometry>
        </mxCell>
        <mxCell id="hRnHotgYXmPWm2Bzv7nC-32" value="" style="edgeStyle=orthogonalEdgeStyle;rounded=0;orthogonalLoop=1;jettySize=auto;html=1;" parent="WIyWlLk6GJQsqaUBKTNV-1" source="hRnHotgYXmPWm2Bzv7nC-11" target="hRnHotgYXmPWm2Bzv7nC-31" edge="1">
          <mxGeometry relative="1" as="geometry" />
        </mxCell>
        <mxCell id="hRnHotgYXmPWm2Bzv7nC-11" value="Place first finger ID" style="whiteSpace=wrap;html=1;shadow=0;strokeWidth=1;spacing=6;spacingTop=-4;" parent="WIyWlLk6GJQsqaUBKTNV-1" vertex="1">
          <mxGeometry x="-20" y="580" width="120" height="50" as="geometry" />
        </mxCell>
        <mxCell id="hRnHotgYXmPWm2Bzv7nC-13" value="No" style="text;html=1;align=center;verticalAlign=middle;resizable=0;points=[];autosize=1;strokeColor=none;fillColor=none;" parent="WIyWlLk6GJQsqaUBKTNV-1" vertex="1">
          <mxGeometry x="30" y="520" width="40" height="30" as="geometry" />
        </mxCell>
        <mxCell id="hRnHotgYXmPWm2Bzv7nC-27" value="Yes" style="text;html=1;align=center;verticalAlign=middle;resizable=0;points=[];autosize=1;strokeColor=none;fillColor=none;" parent="WIyWlLk6GJQsqaUBKTNV-1" vertex="1">
          <mxGeometry x="-170" y="400" width="40" height="30" as="geometry" />
        </mxCell>
        <mxCell id="EDGn8tP3c5_l9zVry4pb-2" value="" style="edgeStyle=orthogonalEdgeStyle;rounded=0;orthogonalLoop=1;jettySize=auto;html=1;" edge="1" parent="WIyWlLk6GJQsqaUBKTNV-1" source="hRnHotgYXmPWm2Bzv7nC-28" target="hRnHotgYXmPWm2Bzv7nC-91">
          <mxGeometry relative="1" as="geometry" />
        </mxCell>
        <mxCell id="hRnHotgYXmPWm2Bzv7nC-28" value="Enter StudentID" style="rounded=0;whiteSpace=wrap;html=1;" parent="WIyWlLk6GJQsqaUBKTNV-1" vertex="1">
          <mxGeometry x="370" y="430" width="120" height="60" as="geometry" />
        </mxCell>
        <mxCell id="hRnHotgYXmPWm2Bzv7nC-56" value="" style="edgeStyle=orthogonalEdgeStyle;rounded=0;orthogonalLoop=1;jettySize=auto;html=1;entryX=0.122;entryY=1.08;entryDx=0;entryDy=0;entryPerimeter=0;" parent="WIyWlLk6GJQsqaUBKTNV-1" edge="1" target="hRnHotgYXmPWm2Bzv7nC-11">
          <mxGeometry relative="1" as="geometry">
            <mxPoint x="100" y="767.5000000000002" as="sourcePoint" />
            <mxPoint x="-10" y="647.5" as="targetPoint" />
          </mxGeometry>
        </mxCell>
        <mxCell id="hRnHotgYXmPWm2Bzv7nC-33" value="" style="edgeStyle=orthogonalEdgeStyle;rounded=0;orthogonalLoop=1;jettySize=auto;html=1;" parent="WIyWlLk6GJQsqaUBKTNV-1" source="hRnHotgYXmPWm2Bzv7nC-31" edge="1">
          <mxGeometry relative="1" as="geometry">
            <mxPoint x="160" y="730.0000000000002" as="targetPoint" />
            <Array as="points">
              <mxPoint x="230" y="680" />
              <mxPoint x="160" y="680" />
            </Array>
          </mxGeometry>
        </mxCell>
        <mxCell id="hRnHotgYXmPWm2Bzv7nC-31" value="Place second finger ID" style="whiteSpace=wrap;html=1;shadow=0;strokeWidth=1;spacing=6;spacingTop=-4;" parent="WIyWlLk6GJQsqaUBKTNV-1" vertex="1">
          <mxGeometry x="180" y="580" width="120" height="50" as="geometry" />
        </mxCell>
        <mxCell id="hRnHotgYXmPWm2Bzv7nC-40" value="" style="edgeStyle=orthogonalEdgeStyle;rounded=0;orthogonalLoop=1;jettySize=auto;html=1;" parent="WIyWlLk6GJQsqaUBKTNV-1" target="hRnHotgYXmPWm2Bzv7nC-39" edge="1">
          <mxGeometry relative="1" as="geometry">
            <mxPoint x="430" y="630" as="sourcePoint" />
          </mxGeometry>
        </mxCell>
        <mxCell id="hRnHotgYXmPWm2Bzv7nC-43" value="" style="edgeStyle=orthogonalEdgeStyle;rounded=0;orthogonalLoop=1;jettySize=auto;html=1;" parent="WIyWlLk6GJQsqaUBKTNV-1" source="hRnHotgYXmPWm2Bzv7nC-39" target="hRnHotgYXmPWm2Bzv7nC-42" edge="1">
          <mxGeometry relative="1" as="geometry" />
        </mxCell>
        <mxCell id="EDGn8tP3c5_l9zVry4pb-24" value="" style="edgeStyle=orthogonalEdgeStyle;rounded=0;orthogonalLoop=1;jettySize=auto;html=1;" edge="1" parent="WIyWlLk6GJQsqaUBKTNV-1" source="hRnHotgYXmPWm2Bzv7nC-39" target="EDGn8tP3c5_l9zVry4pb-22">
          <mxGeometry relative="1" as="geometry" />
        </mxCell>
        <mxCell id="hRnHotgYXmPWm2Bzv7nC-39" value="Place finger ID" style="rounded=0;whiteSpace=wrap;html=1;" parent="WIyWlLk6GJQsqaUBKTNV-1" vertex="1">
          <mxGeometry x="370" y="710" width="120" height="60" as="geometry" />
        </mxCell>
        <mxCell id="hRnHotgYXmPWm2Bzv7nC-41" value="Yes" style="text;html=1;align=center;verticalAlign=middle;resizable=0;points=[];autosize=1;strokeColor=none;fillColor=none;" parent="WIyWlLk6GJQsqaUBKTNV-1" vertex="1">
          <mxGeometry x="430" y="648" width="40" height="30" as="geometry" />
        </mxCell>
        <mxCell id="EDGn8tP3c5_l9zVry4pb-23" value="" style="edgeStyle=orthogonalEdgeStyle;rounded=0;orthogonalLoop=1;jettySize=auto;html=1;" edge="1" parent="WIyWlLk6GJQsqaUBKTNV-1" source="hRnHotgYXmPWm2Bzv7nC-42" target="EDGn8tP3c5_l9zVry4pb-22">
          <mxGeometry relative="1" as="geometry">
            <Array as="points">
              <mxPoint x="630" y="790" />
              <mxPoint x="550" y="790" />
              <mxPoint x="550" y="770" />
              <mxPoint x="527" y="770" />
            </Array>
          </mxGeometry>
        </mxCell>
        <mxCell id="hRnHotgYXmPWm2Bzv7nC-42" value="Place finger ID 2&amp;nbsp;" style="rounded=0;whiteSpace=wrap;html=1;" parent="WIyWlLk6GJQsqaUBKTNV-1" vertex="1">
          <mxGeometry x="570" y="710" width="120" height="60" as="geometry" />
        </mxCell>
        <mxCell id="EDGn8tP3c5_l9zVry4pb-35" value="" style="edgeStyle=orthogonalEdgeStyle;rounded=0;orthogonalLoop=1;jettySize=auto;html=1;" edge="1" parent="WIyWlLk6GJQsqaUBKTNV-1" source="hRnHotgYXmPWm2Bzv7nC-46" target="EDGn8tP3c5_l9zVry4pb-10">
          <mxGeometry relative="1" as="geometry" />
        </mxCell>
        <mxCell id="hRnHotgYXmPWm2Bzv7nC-46" value="Update" style="rounded=0;whiteSpace=wrap;html=1;" parent="WIyWlLk6GJQsqaUBKTNV-1" vertex="1">
          <mxGeometry x="466.65999999999997" y="900" width="120" height="60" as="geometry" />
        </mxCell>
        <mxCell id="EDGn8tP3c5_l9zVry4pb-11" value="" style="edgeStyle=orthogonalEdgeStyle;rounded=0;orthogonalLoop=1;jettySize=auto;html=1;" edge="1" parent="WIyWlLk6GJQsqaUBKTNV-1" source="hRnHotgYXmPWm2Bzv7nC-50" target="EDGn8tP3c5_l9zVry4pb-10">
          <mxGeometry relative="1" as="geometry">
            <Array as="points">
              <mxPoint x="160" y="1040" />
            </Array>
          </mxGeometry>
        </mxCell>
        <mxCell id="hRnHotgYXmPWm2Bzv7nC-50" value="New finger" style="whiteSpace=wrap;html=1;shadow=0;strokeWidth=1;spacing=6;spacingTop=-4;" parent="WIyWlLk6GJQsqaUBKTNV-1" vertex="1">
          <mxGeometry x="100" y="900" width="120" height="60" as="geometry" />
        </mxCell>
        <mxCell id="hRnHotgYXmPWm2Bzv7nC-52" value="Yes" style="text;html=1;align=center;verticalAlign=middle;resizable=0;points=[];autosize=1;strokeColor=none;fillColor=none;" parent="WIyWlLk6GJQsqaUBKTNV-1" vertex="1">
          <mxGeometry x="125" y="830" width="40" height="30" as="geometry" />
        </mxCell>
        <mxCell id="hRnHotgYXmPWm2Bzv7nC-57" value="No" style="text;html=1;align=center;verticalAlign=middle;resizable=0;points=[];autosize=1;strokeColor=none;fillColor=none;" parent="WIyWlLk6GJQsqaUBKTNV-1" vertex="1">
          <mxGeometry y="700" width="40" height="30" as="geometry" />
        </mxCell>
        <mxCell id="hRnHotgYXmPWm2Bzv7nC-63" value="" style="edgeStyle=orthogonalEdgeStyle;rounded=0;orthogonalLoop=1;jettySize=auto;html=1;entryX=0.5;entryY=0;entryDx=0;entryDy=0;" parent="WIyWlLk6GJQsqaUBKTNV-1" source="hRnHotgYXmPWm2Bzv7nC-60" target="hRnHotgYXmPWm2Bzv7nC-64" edge="1">
          <mxGeometry relative="1" as="geometry">
            <mxPoint x="830" y="300" as="targetPoint" />
          </mxGeometry>
        </mxCell>
        <mxCell id="hRnHotgYXmPWm2Bzv7nC-60" value="Case 3: Remove Student byID" style="rounded=0;whiteSpace=wrap;html=1;" parent="WIyWlLk6GJQsqaUBKTNV-1" vertex="1">
          <mxGeometry x="770" y="175" width="120" height="70" as="geometry" />
        </mxCell>
        <mxCell id="hRnHotgYXmPWm2Bzv7nC-67" value="" style="edgeStyle=orthogonalEdgeStyle;rounded=0;orthogonalLoop=1;jettySize=auto;html=1;" parent="WIyWlLk6GJQsqaUBKTNV-1" source="hRnHotgYXmPWm2Bzv7nC-64" edge="1">
          <mxGeometry relative="1" as="geometry">
            <mxPoint x="830" y="560" as="targetPoint" />
          </mxGeometry>
        </mxCell>
        <mxCell id="hRnHotgYXmPWm2Bzv7nC-64" value="Enter StudentID" style="rounded=0;whiteSpace=wrap;html=1;" parent="WIyWlLk6GJQsqaUBKTNV-1" vertex="1">
          <mxGeometry x="770" y="340" width="120" height="70" as="geometry" />
        </mxCell>
        <mxCell id="hRnHotgYXmPWm2Bzv7nC-69" value="" style="edgeStyle=orthogonalEdgeStyle;rounded=0;orthogonalLoop=1;jettySize=auto;html=1;exitX=0.507;exitY=0.975;exitDx=0;exitDy=0;exitPerimeter=0;" parent="WIyWlLk6GJQsqaUBKTNV-1" target="hRnHotgYXmPWm2Bzv7nC-68" edge="1" source="hRnHotgYXmPWm2Bzv7nC-100">
          <mxGeometry relative="1" as="geometry">
            <mxPoint x="830" y="590" as="sourcePoint" />
          </mxGeometry>
        </mxCell>
        <mxCell id="EDGn8tP3c5_l9zVry4pb-38" value="" style="edgeStyle=orthogonalEdgeStyle;rounded=0;orthogonalLoop=1;jettySize=auto;html=1;entryX=1;entryY=0.5;entryDx=0;entryDy=0;" edge="1" parent="WIyWlLk6GJQsqaUBKTNV-1" source="hRnHotgYXmPWm2Bzv7nC-68" target="EDGn8tP3c5_l9zVry4pb-10">
          <mxGeometry relative="1" as="geometry">
            <mxPoint x="810.0526315789475" y="1080.0350877192986" as="targetPoint" />
            <Array as="points">
              <mxPoint x="730" y="675" />
              <mxPoint x="730" y="1050" />
            </Array>
          </mxGeometry>
        </mxCell>
        <mxCell id="hRnHotgYXmPWm2Bzv7nC-68" value="Remove Student" style="rounded=0;whiteSpace=wrap;html=1;" parent="WIyWlLk6GJQsqaUBKTNV-1" vertex="1">
          <mxGeometry x="770" y="640" width="120" height="70" as="geometry" />
        </mxCell>
        <mxCell id="hRnHotgYXmPWm2Bzv7nC-70" value="Yes" style="text;html=1;align=center;verticalAlign=middle;resizable=0;points=[];autosize=1;strokeColor=none;fillColor=none;" parent="WIyWlLk6GJQsqaUBKTNV-1" vertex="1">
          <mxGeometry x="827" y="590" width="40" height="30" as="geometry" />
        </mxCell>
        <mxCell id="hRnHotgYXmPWm2Bzv7nC-88" value="Check duplicate" style="html=1;whiteSpace=wrap;aspect=fixed;shape=isoRectangle;" parent="WIyWlLk6GJQsqaUBKTNV-1" vertex="1">
          <mxGeometry x="-20" y="448" width="120" height="72" as="geometry" />
        </mxCell>
        <mxCell id="hRnHotgYXmPWm2Bzv7nC-89" value="Compare 2 finger" style="html=1;whiteSpace=wrap;aspect=fixed;shape=isoRectangle;" parent="WIyWlLk6GJQsqaUBKTNV-1" vertex="1">
          <mxGeometry x="100" y="730" width="120" height="72" as="geometry" />
        </mxCell>
        <mxCell id="hRnHotgYXmPWm2Bzv7nC-91" value="Check ID" style="html=1;whiteSpace=wrap;aspect=fixed;shape=isoRectangle;" parent="WIyWlLk6GJQsqaUBKTNV-1" vertex="1">
          <mxGeometry x="355" y="568" width="150" height="90" as="geometry" />
        </mxCell>
        <mxCell id="hRnHotgYXmPWm2Bzv7nC-100" value="Check ID" style="html=1;whiteSpace=wrap;aspect=fixed;shape=isoRectangle;" parent="WIyWlLk6GJQsqaUBKTNV-1" vertex="1">
          <mxGeometry x="755" y="495" width="150" height="90" as="geometry" />
        </mxCell>
        <mxCell id="hRnHotgYXmPWm2Bzv7nC-106" value="No" style="text;html=1;align=center;verticalAlign=middle;resizable=0;points=[];autosize=1;strokeColor=none;fillColor=none;" parent="WIyWlLk6GJQsqaUBKTNV-1" vertex="1">
          <mxGeometry x="920" y="440" width="40" height="30" as="geometry" />
        </mxCell>
        <mxCell id="EDGn8tP3c5_l9zVry4pb-39" value="" style="edgeStyle=orthogonalEdgeStyle;rounded=0;orthogonalLoop=1;jettySize=auto;html=1;" edge="1" parent="WIyWlLk6GJQsqaUBKTNV-1" source="hRnHotgYXmPWm2Bzv7nC-110" target="hRnHotgYXmPWm2Bzv7nC-3">
          <mxGeometry relative="1" as="geometry" />
        </mxCell>
        <mxCell id="hRnHotgYXmPWm2Bzv7nC-110" value="Start" style="ellipse;whiteSpace=wrap;html=1;" parent="WIyWlLk6GJQsqaUBKTNV-1" vertex="1">
          <mxGeometry x="370" y="-10" width="120" height="80" as="geometry" />
        </mxCell>
        <mxCell id="EDGn8tP3c5_l9zVry4pb-5" style="edgeStyle=orthogonalEdgeStyle;rounded=0;orthogonalLoop=1;jettySize=auto;html=1;exitX=1.006;exitY=0.507;exitDx=0;exitDy=0;exitPerimeter=0;entryX=1;entryY=0.5;entryDx=0;entryDy=0;" edge="1" parent="WIyWlLk6GJQsqaUBKTNV-1" source="hRnHotgYXmPWm2Bzv7nC-100" target="hRnHotgYXmPWm2Bzv7nC-64">
          <mxGeometry relative="1" as="geometry">
            <mxPoint x="1065" y="605" as="sourcePoint" />
          </mxGeometry>
        </mxCell>
        <mxCell id="EDGn8tP3c5_l9zVry4pb-7" style="edgeStyle=orthogonalEdgeStyle;rounded=0;orthogonalLoop=1;jettySize=auto;html=1;exitX=0;exitY=0.5;exitDx=0;exitDy=0;exitPerimeter=0;entryX=0;entryY=0.5;entryDx=0;entryDy=0;" edge="1" parent="WIyWlLk6GJQsqaUBKTNV-1" source="EDGn8tP3c5_l9zVry4pb-6" target="hRnHotgYXmPWm2Bzv7nC-7">
          <mxGeometry relative="1" as="geometry" />
        </mxCell>
        <mxCell id="EDGn8tP3c5_l9zVry4pb-6" value="" style="line;strokeWidth=2;html=1;" vertex="1" parent="WIyWlLk6GJQsqaUBKTNV-1">
          <mxGeometry x="-140" y="479" width="120" height="10" as="geometry" />
        </mxCell>
        <mxCell id="EDGn8tP3c5_l9zVry4pb-9" style="edgeStyle=orthogonalEdgeStyle;rounded=0;orthogonalLoop=1;jettySize=auto;html=1;exitX=0;exitY=0.5;exitDx=0;exitDy=0;exitPerimeter=0;entryX=0;entryY=0.5;entryDx=0;entryDy=0;" edge="1" parent="WIyWlLk6GJQsqaUBKTNV-1" source="EDGn8tP3c5_l9zVry4pb-8" target="hRnHotgYXmPWm2Bzv7nC-28">
          <mxGeometry relative="1" as="geometry">
            <Array as="points">
              <mxPoint x="310" y="613" />
              <mxPoint x="310" y="460" />
            </Array>
          </mxGeometry>
        </mxCell>
        <mxCell id="EDGn8tP3c5_l9zVry4pb-8" value="" style="line;strokeWidth=2;html=1;" vertex="1" parent="WIyWlLk6GJQsqaUBKTNV-1">
          <mxGeometry x="320" y="608" width="37" height="10" as="geometry" />
        </mxCell>
        <mxCell id="EDGn8tP3c5_l9zVry4pb-36" value="" style="edgeStyle=orthogonalEdgeStyle;rounded=0;orthogonalLoop=1;jettySize=auto;html=1;" edge="1" parent="WIyWlLk6GJQsqaUBKTNV-1" source="EDGn8tP3c5_l9zVry4pb-10" target="EDGn8tP3c5_l9zVry4pb-12">
          <mxGeometry relative="1" as="geometry" />
        </mxCell>
        <mxCell id="EDGn8tP3c5_l9zVry4pb-10" value="ESP 8266&lt;div&gt;&lt;br&gt;&lt;/div&gt;" style="whiteSpace=wrap;html=1;shadow=0;strokeWidth=1;spacing=6;spacingTop=-4;" vertex="1" parent="WIyWlLk6GJQsqaUBKTNV-1">
          <mxGeometry x="466.65999999999997" y="1020" width="120" height="60" as="geometry" />
        </mxCell>
        <mxCell id="EDGn8tP3c5_l9zVry4pb-15" value="" style="edgeStyle=orthogonalEdgeStyle;rounded=0;orthogonalLoop=1;jettySize=auto;html=1;" edge="1" parent="WIyWlLk6GJQsqaUBKTNV-1" source="EDGn8tP3c5_l9zVry4pb-12" target="EDGn8tP3c5_l9zVry4pb-14">
          <mxGeometry relative="1" as="geometry" />
        </mxCell>
        <mxCell id="EDGn8tP3c5_l9zVry4pb-12" value="&lt;div&gt;Store in Google Sheet&lt;/div&gt;" style="whiteSpace=wrap;html=1;shadow=0;strokeWidth=1;spacing=6;spacingTop=-4;" vertex="1" parent="WIyWlLk6GJQsqaUBKTNV-1">
          <mxGeometry x="466.65999999999997" y="1150" width="120" height="60" as="geometry" />
        </mxCell>
        <mxCell id="EDGn8tP3c5_l9zVry4pb-14" value="End" style="ellipse;whiteSpace=wrap;html=1;shadow=0;strokeWidth=1;spacing=6;spacingTop=-4;" vertex="1" parent="WIyWlLk6GJQsqaUBKTNV-1">
          <mxGeometry x="451.65999999999997" y="1310" width="150" height="100" as="geometry" />
        </mxCell>
        <mxCell id="EDGn8tP3c5_l9zVry4pb-16" value="No" style="text;html=1;align=center;verticalAlign=middle;resizable=0;points=[];autosize=1;strokeColor=none;fillColor=none;" vertex="1" parent="WIyWlLk6GJQsqaUBKTNV-1">
          <mxGeometry x="310" y="510" width="40" height="30" as="geometry" />
        </mxCell>
        <mxCell id="EDGn8tP3c5_l9zVry4pb-21" value="" style="edgeStyle=orthogonalEdgeStyle;rounded=0;orthogonalLoop=1;jettySize=auto;html=1;" edge="1" parent="WIyWlLk6GJQsqaUBKTNV-1" source="EDGn8tP3c5_l9zVry4pb-19" target="hRnHotgYXmPWm2Bzv7nC-50">
          <mxGeometry relative="1" as="geometry" />
        </mxCell>
        <mxCell id="EDGn8tP3c5_l9zVry4pb-19" value="" style="line;strokeWidth=2;direction=south;html=1;" vertex="1" parent="WIyWlLk6GJQsqaUBKTNV-1">
          <mxGeometry x="155" y="800" width="10" height="100" as="geometry" />
        </mxCell>
        <mxCell id="EDGn8tP3c5_l9zVry4pb-25" value="" style="edgeStyle=orthogonalEdgeStyle;rounded=0;orthogonalLoop=1;jettySize=auto;html=1;" edge="1" parent="WIyWlLk6GJQsqaUBKTNV-1" source="EDGn8tP3c5_l9zVry4pb-22" target="hRnHotgYXmPWm2Bzv7nC-46">
          <mxGeometry relative="1" as="geometry" />
        </mxCell>
        <mxCell id="EDGn8tP3c5_l9zVry4pb-22" value="Compare 2 finger" style="html=1;whiteSpace=wrap;aspect=fixed;shape=isoRectangle;" vertex="1" parent="WIyWlLk6GJQsqaUBKTNV-1">
          <mxGeometry x="460" y="790" width="133.33" height="80" as="geometry" />
        </mxCell>
      </root>
    </mxGraphModel>
  </diagram>
</mxfile>
